<svg width="32" height="32" viewBox="0 0 32 32" fill="none" xmlns="http://www.w3.org/2000/svg">
<path d="M3.38529 18.9802C3.32774 18.7349 3.61999 18.5803 3.79817 18.7585L13.2415 28.2018C13.4196 28.38 13.2651 28.6722 13.0198 28.6147C8.25434 27.4968 4.5032 23.7457 3.38529 18.9802ZM3.06885 15.1954C3.06429 15.2687 3.09183 15.3402 3.14374 15.3921L16.6079 28.8562C16.6598 28.9081 16.7313 28.9358 16.8046 28.9311C17.4173 28.893 18.0186 28.8122 18.6053 28.6917C18.803 28.6511 18.8717 28.4081 18.729 28.2654L3.73458 13.271C3.59186 13.1283 3.34892 13.197 3.30831 13.3947C3.18781 13.9814 3.10701 14.5827 3.06885 15.1954ZM4.15744 10.7511C4.11438 10.8478 4.13632 10.9608 4.21115 11.0356L20.9644 27.7888C21.0392 27.8637 21.1522 27.8856 21.2488 27.8426C21.7108 27.6368 22.1585 27.4048 22.59 27.1484C22.7328 27.0636 22.7548 26.8673 22.6374 26.7499L5.2501 9.36263C5.13266 9.24518 4.93645 9.26722 4.85161 9.41001C4.59522 9.84151 4.3632 10.2892 4.15744 10.7511ZM6.34231 7.74289C6.24659 7.64717 6.24067 7.49364 6.33086 7.39267C8.70125 4.73895 12.1493 3.06836 15.9876 3.06836C23.1364 3.06836 28.9316 8.86362 28.9316 16.0124C28.9316 19.8507 27.2611 23.2987 24.6073 25.6691C24.5064 25.7593 24.3528 25.7534 24.2571 25.6577L6.34231 7.74289Z" fill="white"/>
</svg>
