<svg width="32" height="32" viewBox="0 0 32 32" fill="none" xmlns="http://www.w3.org/2000/svg">
<g clip-path="url(#clip0_89_6)">
<path d="M8.54909 19.3905C8.54909 20.8765 7.33521 22.0904 5.84925 22.0904C4.3633 22.0904 3.14941 20.8765 3.14941 19.3905C3.14941 17.9046 4.3633 16.6907 5.84925 16.6907H8.54909V19.3905Z" fill="#E01E5A"/>
<path d="M9.90967 19.3905C9.90967 17.9046 11.1235 16.6907 12.6095 16.6907C14.0955 16.6907 15.3093 17.9046 15.3093 19.3905V26.1506C15.3093 27.6365 14.0955 28.8504 12.6095 28.8504C11.1235 28.8504 9.90967 27.6365 9.90967 26.1506V19.3905Z" fill="#E01E5A"/>
<path d="M12.6095 8.54928C11.1235 8.54928 9.90967 7.3354 9.90967 5.84944C9.90967 4.36348 11.1235 3.1496 12.6095 3.1496C14.0955 3.1496 15.3093 4.36348 15.3093 5.84944V8.54928H12.6095Z" fill="#36C5F0"/>
<path d="M12.6093 9.90973C14.0953 9.90973 15.3092 11.1236 15.3092 12.6096C15.3092 14.0955 14.0953 15.3094 12.6093 15.3094H5.84925C4.3633 15.3094 3.14941 14.0955 3.14941 12.6096C3.14941 11.1236 4.3633 9.90973 5.84925 9.90973H12.6093Z" fill="#36C5F0"/>
<path d="M23.4507 12.6096C23.4507 11.1236 24.6646 9.90973 26.1505 9.90973C27.6365 9.90973 28.8504 11.1236 28.8504 12.6096C28.8504 14.0955 27.6365 15.3094 26.1505 15.3094H23.4507V12.6096Z" fill="#2EB67D"/>
<path d="M22.0904 12.6095C22.0904 14.0955 20.8765 15.3093 19.3905 15.3093C17.9046 15.3093 16.6907 14.0955 16.6907 12.6095V5.84944C16.6907 4.36348 17.9046 3.1496 19.3905 3.1496C20.8765 3.1496 22.0904 4.36348 22.0904 5.84944V12.6095Z" fill="#2EB67D"/>
<path d="M19.3905 23.4507C20.8765 23.4507 22.0904 24.6646 22.0904 26.1505C22.0904 27.6365 20.8765 28.8504 19.3905 28.8504C17.9046 28.8504 16.6907 27.6365 16.6907 26.1505V23.4507H19.3905Z" fill="#ECB22E"/>
<path d="M19.3905 22.0904C17.9046 22.0904 16.6907 20.8765 16.6907 19.3905C16.6907 17.9046 17.9046 16.6907 19.3905 16.6907H26.1506C27.6365 16.6907 28.8504 17.9046 28.8504 19.3905C28.8504 20.8765 27.6365 22.0904 26.1506 22.0904H19.3905Z" fill="#ECB22E"/>
</g>
<defs>
<clipPath id="clip0_89_6">
<rect width="32" height="32" fill="white"/>
</clipPath>
</defs>
</svg>
