<svg width="1378" height="512" viewBox="0 0 1378 512" fill="none" xmlns="http://www.w3.org/2000/svg">
<path d="M343.807 174.038H295.564V146.165C295.564 135.444 292.884 126.332 287.523 118.827C282.52 110.966 273.229 107.035 259.65 107.035H246.25V179.935C246.25 190.655 248.93 199.232 254.29 205.664C259.65 212.096 268.941 215.312 282.163 215.312H327.726V447.949H80.0811V215.312H125.644C139.223 215.312 148.514 212.633 153.517 207.272C158.877 201.555 161.558 193.336 161.558 182.615V107.035H148.156C134.934 107.035 125.643 110.788 120.283 118.292C114.923 125.796 112.242 134.908 112.242 145.629V174.038H64V64.1523H343.807V174.038ZM147.889 250.774C135.739 250.775 125.889 260.624 125.889 272.774V394.571C125.889 406.721 135.739 416.571 147.889 416.571H259.917C272.067 416.571 281.917 406.721 281.917 394.571V272.774C281.917 260.624 272.067 250.774 259.917 250.774H147.889Z" fill="black"/>
<path d="M343.807 174.038H295.564V146.165C295.564 135.444 292.884 126.332 287.523 118.827C282.52 110.966 273.229 107.035 259.65 107.035H246.25V179.935C246.25 190.655 248.93 199.232 254.29 205.664C259.65 212.096 268.941 215.312 282.163 215.312H327.726V447.949H80.0811V215.312H125.644C139.223 215.312 148.514 212.633 153.517 207.272C158.877 201.555 161.558 193.336 161.558 182.615V107.035H148.156C134.934 107.035 125.643 110.788 120.283 118.292C114.923 125.796 112.242 134.908 112.242 145.629V174.038H64V64.1523H343.807V174.038ZM147.889 250.774C135.739 250.775 125.889 260.624 125.889 272.774V394.571C125.889 406.721 135.739 416.571 147.889 416.571H259.917C272.067 416.571 281.917 406.721 281.917 394.571V272.774C281.917 260.624 272.067 250.774 259.917 250.774H147.889Z" fill="white"/>
<path d="M1178.68 431.148C1178.68 431.148 1178.68 428.993 1178.68 424.684V409.645V394.669V388.142H1185.14H1200.18H1215.15H1221.68C1221.68 388.142 1221.68 390.318 1221.68 394.669V409.645V424.684V431.148C1221.68 431.148 1219.51 431.148 1215.15 431.148H1200.18H1185.14H1178.68ZM1209.39 431.148C1209.39 431.148 1209.39 428.993 1209.39 424.684V409.645V394.669V388.142H1215.86H1230.9H1245.87H1252.4C1252.4 388.142 1252.4 390.318 1252.4 394.669V409.645V424.684V431.148C1252.4 431.148 1250.23 431.148 1245.87 431.148H1230.9H1215.86H1209.39ZM1240.11 431.148C1240.11 431.148 1240.11 428.993 1240.11 424.684V409.645V394.669V388.142H1246.58H1261.62H1276.59H1283.12C1283.12 388.142 1283.12 390.318 1283.12 394.669V409.645V424.684V431.148C1283.12 431.148 1280.94 431.148 1276.59 431.148H1261.62H1246.58H1240.11ZM1147.96 400.429C1147.96 400.429 1147.96 398.275 1147.96 393.965V378.926V363.951V357.423H1154.42H1169.46H1184.44H1190.96C1190.96 357.423 1190.96 359.599 1190.96 363.951V378.926V393.965V400.429C1190.96 400.429 1188.79 400.429 1184.44 400.429H1169.46H1154.42H1147.96ZM1270.83 400.429C1270.83 400.429 1270.83 398.275 1270.83 393.965V378.926V363.951V357.423H1277.3H1292.34H1307.31H1313.84C1313.84 357.423 1313.84 359.599 1313.84 363.951V378.926V393.965V400.429C1313.84 400.429 1311.66 400.429 1307.31 400.429H1292.34H1277.3H1270.83ZM1147.96 369.71C1147.96 369.71 1147.96 367.556 1147.96 363.247V348.207V333.232V326.704H1154.42H1169.46H1184.44H1190.96C1190.96 326.704 1190.96 328.88 1190.96 333.232V348.207V363.247V369.71C1190.96 369.71 1188.79 369.71 1184.44 369.71H1169.46H1154.42H1147.96ZM1270.83 369.71C1270.83 369.71 1270.83 367.556 1270.83 363.247V348.207V333.232V326.704H1277.3H1292.34H1307.31H1313.84C1313.84 326.704 1313.84 328.88 1313.84 333.232V348.207V363.247V369.71C1313.84 369.71 1311.66 369.71 1307.31 369.71H1292.34H1277.3H1270.83ZM1147.96 338.992C1147.96 338.992 1147.96 336.837 1147.96 332.528V317.488V302.513V295.985H1154.42H1169.46H1184.44H1190.96C1190.96 295.985 1190.96 298.161 1190.96 302.513V317.488V332.528V338.992C1190.96 338.992 1188.79 338.992 1184.44 338.992H1169.46H1154.42H1147.96ZM1270.83 338.992C1270.83 338.992 1270.83 336.837 1270.83 332.528V317.488V302.513V295.985H1277.3H1292.34H1307.31H1313.84C1313.84 295.985 1313.84 298.161 1313.84 302.513V317.488V332.528V338.992C1313.84 338.992 1311.66 338.992 1307.31 338.992H1292.34H1277.3H1270.83ZM1240.11 308.273C1240.11 308.273 1240.11 306.118 1240.11 301.809V286.77V271.794V265.266H1246.58H1261.62H1276.59H1283.12C1283.12 265.266 1283.12 267.442 1283.12 271.794V286.77V301.809V308.273C1283.12 308.273 1280.94 308.273 1276.59 308.273H1261.62H1246.58H1240.11ZM1209.39 277.554C1209.39 277.554 1209.39 275.399 1209.39 271.09V256.051V241.075V234.548H1215.86H1230.9H1245.87H1252.4C1252.4 234.548 1252.4 236.724 1252.4 241.075V256.051V271.09V277.554C1252.4 277.554 1250.23 277.554 1245.87 277.554H1230.9H1215.86H1209.39ZM1178.68 246.835C1178.68 246.835 1178.68 244.681 1178.68 240.371V225.332V210.357V203.829H1185.14H1200.18H1215.15H1221.68C1221.68 203.829 1221.68 206.005 1221.68 210.357V225.332V240.371V246.835C1221.68 246.835 1219.51 246.835 1215.15 246.835H1200.18H1185.14H1178.68ZM1147.96 216.116C1147.96 216.116 1147.96 213.962 1147.96 209.653V194.613V179.638V173.11H1154.42H1169.46H1184.44H1190.96C1190.96 173.11 1190.96 175.286 1190.96 179.638V194.613V209.653V216.116C1190.96 216.116 1188.79 216.116 1184.44 216.116H1169.46H1154.42H1147.96ZM1147.96 185.397C1147.96 185.397 1147.96 183.243 1147.96 178.934V163.894V148.919V142.391H1154.42H1169.46H1184.44H1190.96C1190.96 142.391 1190.96 144.567 1190.96 148.919V163.894V178.934V185.397C1190.96 185.397 1188.79 185.397 1184.44 185.397H1169.46H1154.42H1147.96ZM1270.83 185.397C1270.83 185.397 1270.83 183.243 1270.83 178.934V163.894V148.919V142.391H1277.3H1292.34H1307.31H1313.84C1313.84 142.391 1313.84 144.567 1313.84 148.919V163.894V178.934V185.397C1313.84 185.397 1311.66 185.397 1307.31 185.397H1292.34H1277.3H1270.83ZM1147.96 154.679C1147.96 154.679 1147.96 152.524 1147.96 148.215V133.175V118.2V111.672H1154.42H1169.46H1184.44H1190.96C1190.96 111.672 1190.96 113.848 1190.96 118.2V133.175V148.215V154.679C1190.96 154.679 1188.79 154.679 1184.44 154.679H1169.46H1154.42H1147.96ZM1270.83 154.679C1270.83 154.679 1270.83 152.524 1270.83 148.215V133.175V118.2V111.672H1277.3H1292.34H1307.31H1313.84C1313.84 111.672 1313.84 113.848 1313.84 118.2V133.175V148.215V154.679C1313.84 154.679 1311.66 154.679 1307.31 154.679H1292.34H1277.3H1270.83ZM1178.68 123.96C1178.68 123.96 1178.68 121.805 1178.68 117.496V102.457V87.4812V80.9535H1185.14H1200.18H1215.15H1221.68C1221.68 80.9535 1221.68 83.1294 1221.68 87.4812V102.457V117.496V123.96C1221.68 123.96 1219.51 123.96 1215.15 123.96H1200.18H1185.14H1178.68ZM1209.39 123.96C1209.39 123.96 1209.39 121.805 1209.39 117.496V102.457V87.4812V80.9535H1215.86H1230.9H1245.87H1252.4C1252.4 80.9535 1252.4 83.1294 1252.4 87.4812V102.457V117.496V123.96C1252.4 123.96 1250.23 123.96 1245.87 123.96H1230.9H1215.86H1209.39ZM1240.11 123.96C1240.11 123.96 1240.11 121.805 1240.11 117.496V102.457V87.4812V80.9535H1246.58H1261.62H1276.59H1283.12C1283.12 80.9535 1283.12 83.1294 1283.12 87.4812V102.457V117.496V123.96C1283.12 123.96 1280.94 123.96 1276.59 123.96H1261.62H1246.58H1240.11Z" fill="white"/>
<path d="M991.464 431.148C991.464 431.148 991.464 428.993 991.464 424.684V409.645V394.669V388.142H997.928H1012.97H1027.94H1034.47C1034.47 388.142 1034.47 390.318 1034.47 394.669V409.645V424.684V431.148C1034.47 431.148 1032.29 431.148 1027.94 431.148H1012.97H997.928H991.464ZM1022.18 431.148C1022.18 431.148 1022.18 428.993 1022.18 424.684V409.645V394.669V388.142H1028.65H1043.69H1058.66H1065.19C1065.19 388.142 1065.19 390.318 1065.19 394.669V409.645V424.684V431.148C1065.19 431.148 1063.01 431.148 1058.66 431.148H1043.69H1028.65H1022.18ZM1052.9 431.148C1052.9 431.148 1052.9 428.993 1052.9 424.684V409.645V394.669V388.142H1059.37H1074.4H1089.38H1095.91C1095.91 388.142 1095.91 390.318 1095.91 394.669V409.645V424.684V431.148C1095.91 431.148 1093.73 431.148 1089.38 431.148H1074.4H1059.37H1052.9ZM960.745 400.429C960.745 400.429 960.745 398.275 960.745 393.965V378.926V363.951V357.423H967.209H982.248H997.224H1003.75C1003.75 357.423 1003.75 359.599 1003.75 363.951V378.926V393.965V400.429C1003.75 400.429 1001.58 400.429 997.224 400.429H982.248H967.209H960.745ZM1083.62 400.429C1083.62 400.429 1083.62 398.275 1083.62 393.965V378.926V363.951V357.423H1090.08H1105.12H1120.1H1126.63C1126.63 357.423 1126.63 359.599 1126.63 363.951V378.926V393.965V400.429C1126.63 400.429 1124.45 400.429 1120.1 400.429H1105.12H1090.08H1083.62ZM960.745 369.71C960.745 369.71 960.745 367.556 960.745 363.247V348.207V333.232V326.704H967.209H982.248H997.224H1003.75C1003.75 326.704 1003.75 328.88 1003.75 333.232V348.207V363.247V369.71C1003.75 369.71 1001.58 369.71 997.224 369.71H982.248H967.209H960.745ZM1083.62 369.71C1083.62 369.71 1083.62 367.556 1083.62 363.247V348.207V333.232V326.704H1090.08H1105.12H1120.1H1126.63C1126.63 326.704 1126.63 328.88 1126.63 333.232V348.207V363.247V369.71C1126.63 369.71 1124.45 369.71 1120.1 369.71H1105.12H1090.08H1083.62ZM960.745 338.992C960.745 338.992 960.745 336.837 960.745 332.528V317.488V302.513V295.985H967.209H982.248H997.224H1003.75C1003.75 295.985 1003.75 298.161 1003.75 302.513V317.488V332.528V338.992C1003.75 338.992 1001.58 338.992 997.224 338.992H982.248H967.209H960.745ZM1083.62 338.992C1083.62 338.992 1083.62 336.837 1083.62 332.528V317.488V302.513V295.985H1090.08H1105.12H1120.1H1126.63C1126.63 295.985 1126.63 298.161 1126.63 302.513V317.488V332.528V338.992C1126.63 338.992 1124.45 338.992 1120.1 338.992H1105.12H1090.08H1083.62ZM960.745 308.273C960.745 308.273 960.745 306.118 960.745 301.809V286.77V271.794V265.266H967.209H982.248H997.224H1003.75C1003.75 265.266 1003.75 267.442 1003.75 271.794V286.77V301.809V308.273C1003.75 308.273 1001.58 308.273 997.224 308.273H982.248H967.209H960.745ZM1083.62 308.273C1083.62 308.273 1083.62 306.118 1083.62 301.809V286.77V271.794V265.266H1090.08H1105.12H1120.1H1126.63C1126.63 265.266 1126.63 267.442 1126.63 271.794V286.77V301.809V308.273C1126.63 308.273 1124.45 308.273 1120.1 308.273H1105.12H1090.08H1083.62ZM960.745 277.554C960.745 277.554 960.745 275.399 960.745 271.09V256.051V241.075V234.548H967.209H982.248H997.224H1003.75C1003.75 234.548 1003.75 236.724 1003.75 241.075V256.051V271.09V277.554C1003.75 277.554 1001.58 277.554 997.224 277.554H982.248H967.209H960.745ZM1083.62 277.554C1083.62 277.554 1083.62 275.399 1083.62 271.09V256.051V241.075V234.548H1090.08H1105.12H1120.1H1126.63C1126.63 234.548 1126.63 236.724 1126.63 241.075V256.051V271.09V277.554C1126.63 277.554 1124.45 277.554 1120.1 277.554H1105.12H1090.08H1083.62ZM960.745 246.835C960.745 246.835 960.745 244.681 960.745 240.371V225.332V210.357V203.829H967.209H982.248H997.224H1003.75C1003.75 203.829 1003.75 206.005 1003.75 210.357V225.332V240.371V246.835C1003.75 246.835 1001.58 246.835 997.224 246.835H982.248H967.209H960.745ZM1083.62 246.835C1083.62 246.835 1083.62 244.681 1083.62 240.371V225.332V210.357V203.829H1090.08H1105.12H1120.1H1126.63C1126.63 203.829 1126.63 206.005 1126.63 210.357V225.332V240.371V246.835C1126.63 246.835 1124.45 246.835 1120.1 246.835H1105.12H1090.08H1083.62ZM960.745 216.116C960.745 216.116 960.745 213.962 960.745 209.653V194.613V179.638V173.11H967.209H982.248H997.224H1003.75C1003.75 173.11 1003.75 175.286 1003.75 179.638V194.613V209.653V216.116C1003.75 216.116 1001.58 216.116 997.224 216.116H982.248H967.209H960.745ZM1083.62 216.116C1083.62 216.116 1083.62 213.962 1083.62 209.653V194.613V179.638V173.11H1090.08H1105.12H1120.1H1126.63C1126.63 173.11 1126.63 175.286 1126.63 179.638V194.613V209.653V216.116C1126.63 216.116 1124.45 216.116 1120.1 216.116H1105.12H1090.08H1083.62ZM960.745 185.397C960.745 185.397 960.745 183.243 960.745 178.934V163.894V148.919V142.391H967.209H982.248H997.224H1003.75C1003.75 142.391 1003.75 144.567 1003.75 148.919V163.894V178.934V185.397C1003.75 185.397 1001.58 185.397 997.224 185.397H982.248H967.209H960.745ZM1083.62 185.397C1083.62 185.397 1083.62 183.243 1083.62 178.934V163.894V148.919V142.391H1090.08H1105.12H1120.1H1126.63C1126.63 142.391 1126.63 144.567 1126.63 148.919V163.894V178.934V185.397C1126.63 185.397 1124.45 185.397 1120.1 185.397H1105.12H1090.08H1083.62ZM960.745 154.679C960.745 154.679 960.745 152.524 960.745 148.215V133.175V118.2V111.672H967.209H982.248H997.224H1003.75C1003.75 111.672 1003.75 113.848 1003.75 118.2V133.175V148.215V154.679C1003.75 154.679 1001.58 154.679 997.224 154.679H982.248H967.209H960.745ZM1083.62 154.679C1083.62 154.679 1083.62 152.524 1083.62 148.215V133.175V118.2V111.672H1090.08H1105.12H1120.1H1126.63C1126.63 111.672 1126.63 113.848 1126.63 118.2V133.175V148.215V154.679C1126.63 154.679 1124.45 154.679 1120.1 154.679H1105.12H1090.08H1083.62ZM960.745 123.96C960.745 123.96 960.745 121.805 960.745 117.496V102.457V87.4812V80.9535H967.209H982.248H997.224H1003.75C1003.75 80.9535 1003.75 83.1294 1003.75 87.4812V102.457V117.496V123.96C1003.75 123.96 1001.58 123.96 997.224 123.96H982.248H967.209H960.745ZM1083.62 123.96C1083.62 123.96 1083.62 121.805 1083.62 117.496V102.457V87.4812V80.9535H1090.08H1105.12H1120.1H1126.63C1126.63 80.9535 1126.63 83.1294 1126.63 87.4812V102.457V117.496V123.96C1126.63 123.96 1124.45 123.96 1120.1 123.96H1105.12H1090.08H1083.62Z" fill="white"/>
<path d="M837.96 431.148C837.96 431.148 837.96 428.993 837.96 424.684V409.645V394.669V388.142H844.424H859.463H874.439H880.966C880.966 388.142 880.966 390.318 880.966 394.669V409.645V424.684V431.148C880.966 431.148 878.791 431.148 874.439 431.148H859.463H844.424H837.96ZM837.96 400.429C837.96 400.429 837.96 398.275 837.96 393.965V378.926V363.951V357.423H844.424H859.463H874.439H880.966C880.966 357.423 880.966 359.599 880.966 363.951V378.926V393.965V400.429C880.966 400.429 878.791 400.429 874.439 400.429H859.463H844.424H837.96ZM837.96 369.71C837.96 369.71 837.96 367.556 837.96 363.247V348.207V333.232V326.704H844.424H859.463H874.439H880.966C880.966 326.704 880.966 328.88 880.966 333.232V348.207V363.247V369.71C880.966 369.71 878.791 369.71 874.439 369.71H859.463H844.424H837.96ZM837.96 338.992C837.96 338.992 837.96 336.837 837.96 332.528V317.488V302.513V295.985H844.424H859.463H874.439H880.966C880.966 295.985 880.966 298.161 880.966 302.513V317.488V332.528V338.992C880.966 338.992 878.791 338.992 874.439 338.992H859.463H844.424H837.96ZM837.96 308.273C837.96 308.273 837.96 306.118 837.96 301.809V286.77V271.794V265.266H844.424H859.463H874.439H880.966C880.966 265.266 880.966 267.442 880.966 271.794V286.77V301.809V308.273C880.966 308.273 878.791 308.273 874.439 308.273H859.463H844.424H837.96ZM837.96 277.554C837.96 277.554 837.96 275.399 837.96 271.09V256.051V241.075V234.548H844.424H859.463H874.439H880.966C880.966 234.548 880.966 236.724 880.966 241.075V256.051V271.09V277.554C880.966 277.554 878.791 277.554 874.439 277.554H859.463H844.424H837.96ZM837.96 246.835C837.96 246.835 837.96 244.681 837.96 240.371V225.332V210.357V203.829H844.424H859.463H874.439H880.966C880.966 203.829 880.966 206.005 880.966 210.357V225.332V240.371V246.835C880.966 246.835 878.791 246.835 874.439 246.835H859.463H844.424H837.96ZM837.96 216.116C837.96 216.116 837.96 213.962 837.96 209.653V194.613V179.638V173.11H844.424H859.463H874.439H880.966C880.966 173.11 880.966 175.286 880.966 179.638V194.613V209.653V216.116C880.966 216.116 878.791 216.116 874.439 216.116H859.463H844.424H837.96ZM837.96 185.397C837.96 185.397 837.96 183.243 837.96 178.934V163.894V148.919V142.391H844.424H859.463H874.439H880.966C880.966 142.391 880.966 144.567 880.966 148.919V163.894V178.934V185.397C880.966 185.397 878.791 185.397 874.439 185.397H859.463H844.424H837.96ZM837.96 154.679C837.96 154.679 837.96 152.524 837.96 148.215V133.175V118.2V111.672H844.424H859.463H874.439H880.966C880.966 111.672 880.966 113.848 880.966 118.2V133.175V148.215V154.679C880.966 154.679 878.791 154.679 874.439 154.679H859.463H844.424H837.96ZM776.522 123.96C776.522 123.96 776.522 121.805 776.522 117.496V102.457V87.4812V80.9535H782.986H798.026H813.001H819.529C819.529 80.9535 819.529 83.1294 819.529 87.4812V102.457V117.496V123.96C819.529 123.96 817.353 123.96 813.001 123.96H798.026H782.986H776.522ZM807.241 123.96C807.241 123.96 807.241 121.805 807.241 117.496V102.457V87.4812V80.9535H813.705H828.744H843.72H850.248C850.248 80.9535 850.248 83.1294 850.248 87.4812V102.457V117.496V123.96C850.248 123.96 848.072 123.96 843.72 123.96H828.744H813.705H807.241ZM837.96 123.96C837.96 123.96 837.96 121.805 837.96 117.496V102.457V87.4812V80.9535H844.424H859.463H874.439H880.966C880.966 80.9535 880.966 83.1294 880.966 87.4812V102.457V117.496V123.96C880.966 123.96 878.791 123.96 874.439 123.96H859.463H844.424H837.96ZM868.679 123.96C868.679 123.96 868.679 121.805 868.679 117.496V102.457V87.4812V80.9535H875.143H890.182H905.158H911.685C911.685 80.9535 911.685 83.1294 911.685 87.4812V102.457V117.496V123.96C911.685 123.96 909.509 123.96 905.158 123.96H890.182H875.143H868.679ZM899.398 123.96C899.398 123.96 899.398 121.805 899.398 117.496V102.457V87.4812V80.9535H905.862H920.901H935.876H942.404C942.404 80.9535 942.404 83.1294 942.404 87.4812V102.457V117.496V123.96C942.404 123.96 940.228 123.96 935.876 123.96H920.901H905.862H899.398Z" fill="white"/>
<path d="M622.748 431.148C622.748 431.148 622.748 428.993 622.748 424.684V409.645V394.669V388.142H629.212H644.251H659.227H665.754C665.754 388.142 665.754 390.318 665.754 394.669V409.645V424.684V431.148C665.754 431.148 663.579 431.148 659.227 431.148H644.251H629.212H622.748ZM653.467 431.148C653.467 431.148 653.467 428.993 653.467 424.684V409.645V394.669V388.142H659.931H674.97H689.946H696.473C696.473 388.142 696.473 390.318 696.473 394.669V409.645V424.684V431.148C696.473 431.148 694.297 431.148 689.946 431.148H674.97H659.931H653.467ZM684.186 431.148C684.186 431.148 684.186 428.993 684.186 424.684V409.645V394.669V388.142H690.65H705.689H720.664H727.192C727.192 388.142 727.192 390.318 727.192 394.669V409.645V424.684V431.148C727.192 431.148 725.016 431.148 720.664 431.148H705.689H690.65H684.186ZM592.029 400.429C592.029 400.429 592.029 398.275 592.029 393.965V378.926V363.951V357.423H598.493H613.532H628.508H635.036C635.036 357.423 635.036 359.599 635.036 363.951V378.926V393.965V400.429C635.036 400.429 632.86 400.429 628.508 400.429H613.532H598.493H592.029ZM714.905 400.429C714.905 400.429 714.905 398.275 714.905 393.965V378.926V363.951V357.423H721.368H736.408H751.383H757.911C757.911 357.423 757.911 359.599 757.911 363.951V378.926V393.965V400.429C757.911 400.429 755.735 400.429 751.383 400.429H736.408H721.368H714.905ZM592.029 369.71C592.029 369.71 592.029 367.556 592.029 363.247V348.207V333.232V326.704H598.493H613.532H628.508H635.036C635.036 326.704 635.036 328.88 635.036 333.232V348.207V363.247V369.71C635.036 369.71 632.86 369.71 628.508 369.71H613.532H598.493H592.029ZM714.905 369.71C714.905 369.71 714.905 367.556 714.905 363.247V348.207V333.232V326.704H721.368H736.408H751.383H757.911C757.911 326.704 757.911 328.88 757.911 333.232V348.207V363.247V369.71C757.911 369.71 755.735 369.71 751.383 369.71H736.408H721.368H714.905ZM592.029 338.992C592.029 338.992 592.029 336.837 592.029 332.528V317.488V302.513V295.985H598.493H613.532H628.508H635.036C635.036 295.985 635.036 298.161 635.036 302.513V317.488V332.528V338.992C635.036 338.992 632.86 338.992 628.508 338.992H613.532H598.493H592.029ZM714.905 338.992C714.905 338.992 714.905 336.837 714.905 332.528V317.488V302.513V295.985H721.368H736.408H751.383H757.911C757.911 295.985 757.911 298.161 757.911 302.513V317.488V332.528V338.992C757.911 338.992 755.735 338.992 751.383 338.992H736.408H721.368H714.905ZM592.029 308.273C592.029 308.273 592.029 306.118 592.029 301.809V286.77V271.794V265.266H598.493H613.532H628.508H635.036C635.036 265.266 635.036 267.442 635.036 271.794V286.77V301.809V308.273C635.036 308.273 632.86 308.273 628.508 308.273H613.532H598.493H592.029ZM714.905 308.273C714.905 308.273 714.905 306.118 714.905 301.809V286.77V271.794V265.266H721.368H736.408H751.383H757.911C757.911 265.266 757.911 267.442 757.911 271.794V286.77V301.809V308.273C757.911 308.273 755.735 308.273 751.383 308.273H736.408H721.368H714.905ZM592.029 277.554C592.029 277.554 592.029 275.399 592.029 271.09V256.051V241.075V234.548H598.493H613.532H628.508H635.036C635.036 234.548 635.036 236.724 635.036 241.075V256.051V271.09V277.554C635.036 277.554 632.86 277.554 628.508 277.554H613.532H598.493H592.029ZM714.905 277.554C714.905 277.554 714.905 275.399 714.905 271.09V256.051V241.075V234.548H721.368H736.408H751.383H757.911C757.911 234.548 757.911 236.724 757.911 241.075V256.051V271.09V277.554C757.911 277.554 755.735 277.554 751.383 277.554H736.408H721.368H714.905ZM592.029 246.835C592.029 246.835 592.029 244.681 592.029 240.371V225.332V210.357V203.829H598.493H613.532H628.508H635.036C635.036 203.829 635.036 206.005 635.036 210.357V225.332V240.371V246.835C635.036 246.835 632.86 246.835 628.508 246.835H613.532H598.493H592.029ZM714.905 246.835C714.905 246.835 714.905 244.681 714.905 240.371V225.332V210.357V203.829H721.368H736.408H751.383H757.911C757.911 203.829 757.911 206.005 757.911 210.357V225.332V240.371V246.835C757.911 246.835 755.735 246.835 751.383 246.835H736.408H721.368H714.905ZM592.029 216.116C592.029 216.116 592.029 213.962 592.029 209.653V194.613V179.638V173.11H598.493H613.532H628.508H635.036C635.036 173.11 635.036 175.286 635.036 179.638V194.613V209.653V216.116C635.036 216.116 632.86 216.116 628.508 216.116H613.532H598.493H592.029ZM714.905 216.116C714.905 216.116 714.905 213.962 714.905 209.653V194.613V179.638V173.11H721.368H736.408H751.383H757.911C757.911 173.11 757.911 175.286 757.911 179.638V194.613V209.653V216.116C757.911 216.116 755.735 216.116 751.383 216.116H736.408H721.368H714.905ZM592.029 185.397C592.029 185.397 592.029 183.243 592.029 178.934V163.894V148.919V142.391H598.493H613.532H628.508H635.036C635.036 142.391 635.036 144.567 635.036 148.919V163.894V178.934V185.397C635.036 185.397 632.86 185.397 628.508 185.397H613.532H598.493H592.029ZM714.905 185.397C714.905 185.397 714.905 183.243 714.905 178.934V163.894V148.919V142.391H721.368H736.408H751.383H757.911C757.911 142.391 757.911 144.567 757.911 148.919V163.894V178.934V185.397C757.911 185.397 755.735 185.397 751.383 185.397H736.408H721.368H714.905ZM592.029 154.679C592.029 154.679 592.029 152.524 592.029 148.215V133.175V118.2V111.672H598.493H613.532H628.508H635.036C635.036 111.672 635.036 113.848 635.036 118.2V133.175V148.215V154.679C635.036 154.679 632.86 154.679 628.508 154.679H613.532H598.493H592.029ZM714.905 154.679C714.905 154.679 714.905 152.524 714.905 148.215V133.175V118.2V111.672H721.368H736.408H751.383H757.911C757.911 111.672 757.911 113.848 757.911 118.2V133.175V148.215V154.679C757.911 154.679 755.735 154.679 751.383 154.679H736.408H721.368H714.905ZM622.748 123.96C622.748 123.96 622.748 121.805 622.748 117.496V102.457V87.4812V80.9535H629.212H644.251H659.227H665.754C665.754 80.9535 665.754 83.1294 665.754 87.4812V102.457V117.496V123.96C665.754 123.96 663.579 123.96 659.227 123.96H644.251H629.212H622.748ZM653.467 123.96C653.467 123.96 653.467 121.805 653.467 117.496V102.457V87.4812V80.9535H659.931H674.97H689.946H696.473C696.473 80.9535 696.473 83.1294 696.473 87.4812V102.457V117.496V123.96C696.473 123.96 694.297 123.96 689.946 123.96H674.97H659.931H653.467ZM684.186 123.96C684.186 123.96 684.186 121.805 684.186 117.496V102.457V87.4812V80.9535H690.65H705.689H720.664H727.192C727.192 80.9535 727.192 83.1294 727.192 87.4812V102.457V117.496V123.96C727.192 123.96 725.016 123.96 720.664 123.96H705.689H690.65H684.186Z" fill="white"/>
<path d="M469.244 431.148C469.244 431.148 469.244 428.993 469.244 424.684V409.645V394.669V388.142H475.708H490.747H505.723H512.251C512.251 388.142 512.251 390.318 512.251 394.669V409.645V424.684V431.148C512.251 431.148 510.075 431.148 505.723 431.148H490.747H475.708H469.244ZM469.244 400.429C469.244 400.429 469.244 398.275 469.244 393.965V378.926V363.951V357.423H475.708H490.747H505.723H512.251C512.251 357.423 512.251 359.599 512.251 363.951V378.926V393.965V400.429C512.251 400.429 510.075 400.429 505.723 400.429H490.747H475.708H469.244ZM469.244 369.71C469.244 369.71 469.244 367.556 469.244 363.247V348.207V333.232V326.704H475.708H490.747H505.723H512.251C512.251 326.704 512.251 328.88 512.251 333.232V348.207V363.247V369.71C512.251 369.71 510.075 369.71 505.723 369.71H490.747H475.708H469.244ZM469.244 338.992C469.244 338.992 469.244 336.837 469.244 332.528V317.488V302.513V295.985H475.708H490.747H505.723H512.251C512.251 295.985 512.251 298.161 512.251 302.513V317.488V332.528V338.992C512.251 338.992 510.075 338.992 505.723 338.992H490.747H475.708H469.244ZM469.244 308.273C469.244 308.273 469.244 306.118 469.244 301.809V286.77V271.794V265.266H475.708H490.747H505.723H512.251C512.251 265.266 512.251 267.442 512.251 271.794V286.77V301.809V308.273C512.251 308.273 510.075 308.273 505.723 308.273H490.747H475.708H469.244ZM469.244 277.554C469.244 277.554 469.244 275.399 469.244 271.09V256.051V241.075V234.548H475.708H490.747H505.723H512.251C512.251 234.548 512.251 236.724 512.251 241.075V256.051V271.09V277.554C512.251 277.554 510.075 277.554 505.723 277.554H490.747H475.708H469.244ZM469.244 246.835C469.244 246.835 469.244 244.681 469.244 240.371V225.332V210.357V203.829H475.708H490.747H505.723H512.251C512.251 203.829 512.251 206.005 512.251 210.357V225.332V240.371V246.835C512.251 246.835 510.075 246.835 505.723 246.835H490.747H475.708H469.244ZM469.244 216.116C469.244 216.116 469.244 213.962 469.244 209.653V194.613V179.638V173.11H475.708H490.747H505.723H512.251C512.251 173.11 512.251 175.286 512.251 179.638V194.613V209.653V216.116C512.251 216.116 510.075 216.116 505.723 216.116H490.747H475.708H469.244ZM469.244 185.397C469.244 185.397 469.244 183.243 469.244 178.934V163.894V148.919V142.391H475.708H490.747H505.723H512.251C512.251 142.391 512.251 144.567 512.251 148.919V163.894V178.934V185.397C512.251 185.397 510.075 185.397 505.723 185.397H490.747H475.708H469.244ZM469.244 154.679C469.244 154.679 469.244 152.524 469.244 148.215V133.175V118.2V111.672H475.708H490.747H505.723H512.251C512.251 111.672 512.251 113.848 512.251 118.2V133.175V148.215V154.679C512.251 154.679 510.075 154.679 505.723 154.679H490.747H475.708H469.244ZM407.807 123.96C407.807 123.96 407.807 121.805 407.807 117.496V102.457V87.4812V80.9535H414.27H429.31H444.285H450.813C450.813 80.9535 450.813 83.1294 450.813 87.4812V102.457V117.496V123.96C450.813 123.96 448.637 123.96 444.285 123.96H429.31H414.27H407.807ZM438.525 123.96C438.525 123.96 438.525 121.805 438.525 117.496V102.457V87.4812V80.9535H444.989H460.029H475.004H481.532C481.532 80.9535 481.532 83.1294 481.532 87.4812V102.457V117.496V123.96C481.532 123.96 479.356 123.96 475.004 123.96H460.029H444.989H438.525ZM469.244 123.96C469.244 123.96 469.244 121.805 469.244 117.496V102.457V87.4812V80.9535H475.708H490.747H505.723H512.251C512.251 80.9535 512.251 83.1294 512.251 87.4812V102.457V117.496V123.96C512.251 123.96 510.075 123.96 505.723 123.96H490.747H475.708H469.244ZM499.963 123.96C499.963 123.96 499.963 121.805 499.963 117.496V102.457V87.4812V80.9535H506.427H521.466H536.442H542.969C542.969 80.9535 542.969 83.1294 542.969 87.4812V102.457V117.496V123.96C542.969 123.96 540.794 123.96 536.442 123.96H521.466H506.427H499.963ZM530.682 123.96C530.682 123.96 530.682 121.805 530.682 117.496V102.457V87.4812V80.9535H537.146H552.185H567.161H573.688C573.688 80.9535 573.688 83.1294 573.688 87.4812V102.457V117.496V123.96C573.688 123.96 571.512 123.96 567.161 123.96H552.185H537.146H530.682Z" fill="white"/>
</svg>
