<svg width="512" height="512" viewBox="0 0 512 512" fill="none" xmlns="http://www.w3.org/2000/svg">
<rect width="512" height="512" fill="white"/>
<path d="M132.178 447.898V375.534C132.178 369.459 132.178 365.707 132.178 364.278C132.178 362.491 132.178 361.24 132.178 360.526C132.178 359.811 132.178 358.381 132.178 356.237V355.701C132.178 353.2 132.178 351.77 132.178 351.413C132.178 350.698 132.178 349.448 132.178 347.661C132.178 345.517 132.178 341.586 132.178 335.868V308.531C132.178 302.456 132.178 298.704 132.178 297.274C132.178 295.487 132.178 294.237 132.178 293.522C132.178 292.807 132.178 291.378 132.178 289.234V288.698C132.178 286.196 132.178 284.767 132.178 284.41C132.178 283.695 132.178 282.444 132.178 280.657C132.178 278.513 132.178 274.582 132.178 268.865V215.262H177.74C191.319 215.262 200.61 212.582 205.613 207.221C210.974 201.504 213.654 193.285 213.654 182.564V106.984H200.253C187.031 106.984 177.74 110.736 172.38 118.241C167.019 125.745 164.339 134.858 164.339 145.578V173.988H116.097V64.1019H395.903V173.988H347.661V146.114C347.661 135.394 344.981 126.281 339.62 118.777C334.618 110.915 325.326 106.984 311.747 106.984H298.346V179.884C298.346 190.605 301.026 199.181 306.387 205.613C311.747 212.046 321.038 215.262 334.26 215.262H379.823V268.865C379.823 274.582 379.823 278.513 379.823 280.657C379.823 282.444 379.823 283.695 379.823 284.41C379.823 284.767 379.823 286.196 379.823 288.698V289.234C379.823 291.378 379.823 292.807 379.823 293.522C379.823 294.237 379.823 295.487 379.823 297.274C379.823 298.704 379.823 302.456 379.823 308.531V335.868C379.823 341.586 379.823 345.517 379.823 347.661C379.823 349.448 379.823 350.698 379.823 351.413C379.823 351.77 379.823 353.2 379.823 355.701V356.237C379.823 358.381 379.823 359.811 379.823 360.526C379.823 361.24 379.823 362.491 379.823 364.278C379.823 365.707 379.823 369.459 379.823 375.534V447.898H132.178Z" fill="black"/>
<path d="M132.178 447.898V375.534C132.178 369.459 132.178 365.707 132.178 364.278C132.178 362.491 132.178 361.24 132.178 360.526C132.178 359.811 132.178 358.381 132.178 356.237V355.701C132.178 353.2 132.178 351.77 132.178 351.413C132.178 350.698 132.178 349.448 132.178 347.661C132.178 345.517 132.178 341.586 132.178 335.868V308.531C132.178 302.456 132.178 298.704 132.178 297.274C132.178 295.487 132.178 294.237 132.178 293.522C132.178 292.807 132.178 291.378 132.178 289.234V288.698C132.178 286.196 132.178 284.767 132.178 284.41C132.178 283.695 132.178 282.444 132.178 280.657C132.178 278.513 132.178 274.582 132.178 268.865V215.262H177.74C191.319 215.262 200.61 212.582 205.613 207.221C210.974 201.504 213.654 193.285 213.654 182.564V106.984H200.253C187.031 106.984 177.74 110.736 172.38 118.241C167.019 125.745 164.339 134.858 164.339 145.578V173.988H116.097V64.1019H395.903V173.988H347.661V146.114C347.661 135.394 344.981 126.281 339.62 118.777C334.618 110.915 325.326 106.984 311.747 106.984H298.346V179.884C298.346 190.605 301.026 199.181 306.387 205.613C311.747 212.046 321.038 215.262 334.26 215.262H379.823V268.865C379.823 274.582 379.823 278.513 379.823 280.657C379.823 282.444 379.823 283.695 379.823 284.41C379.823 284.767 379.823 286.196 379.823 288.698V289.234C379.823 291.378 379.823 292.807 379.823 293.522C379.823 294.237 379.823 295.487 379.823 297.274C379.823 298.704 379.823 302.456 379.823 308.531V335.868C379.823 341.586 379.823 345.517 379.823 347.661C379.823 349.448 379.823 350.698 379.823 351.413C379.823 351.77 379.823 353.2 379.823 355.701V356.237C379.823 358.381 379.823 359.811 379.823 360.526C379.823 361.24 379.823 362.491 379.823 364.278C379.823 365.707 379.823 369.459 379.823 375.534V447.898H132.178Z" fill="url(#paint0_linear_48_11)"/>
<rect x="173.102" y="255.608" width="165.797" height="156.029" rx="22" fill="white"/>
<defs>
<linearGradient id="paint0_linear_48_11" x1="256" y1="64.1019" x2="256" y2="447.898" gradientUnits="userSpaceOnUse">
<stop stop-color="#0F0F0F"/>
<stop offset="1" stop-color="#0A0A0A"/>
</linearGradient>
</defs>
</svg>
